<?xml version="1.0" encoding="UTF-8"?>
<svg width="154px" height="32px" viewBox="0 0 154 32" version="1.1" xmlns="http://www.w3.org/2000/svg" xmlns:xlink="http://www.w3.org/1999/xlink">
    <!-- Generator: Sketch 46.2 (44496) - http://www.bohemiancoding.com/sketch -->
    <title>Page 1</title>
    <desc>Created with Sketch.</desc>
    <defs>
        <polygon id="path-1" points="14.3063248 0.429409868 14.3063248 15.5146327 0.232032593 15.5146327 0.232032593 0.429409868 14.3063248 0.429409868"></polygon>
        <polygon id="path-3" points="0.517007675 12.4172149 17.0031181 12.4172149 17.0031181 0.171696217 0.517007675 0.171696217"></polygon>
    </defs>
    <g id="Homepage" stroke="none" stroke-width="1" fill="none" fill-rule="evenodd">
        <g id="Homepage---Active-Client" transform="translate(-33.000000, -34.000000)">
            <g id="Page-1" transform="translate(33.000000, 34.000000)">
                <path d="M44.2209195,15.9278438 C43.883397,13.7204016 42.4729143,12.2788758 39.5294699,12.2788758 C36.892505,12.2788758 35.2060215,13.6284013 34.7460201,15.9278438 L44.2209195,15.9278438 Z M47.4403647,17.7983279 L47.4403647,18.166329 L34.6235412,18.166329 C34.7770631,21.2017736 36.892505,22.4282558 39.8054708,22.4282558 C42.3199568,22.4282558 44.0369189,21.6002533 45.0178789,20.4048142 L46.6434052,22.7042566 C45.2634011,23.9002602 42.9944373,25.0347421 39.6214702,25.0347421 C34.9610637,25.0347421 31.5570535,22.5202561 31.5570535,17.9208068 L31.5570535,17.5223271 C31.5570535,13.2293572 34.6235412,9.91847618 39.5599485,9.91847618 C45.4474017,9.91847618 47.4708433,13.9348808 47.4403647,17.7983279 L47.4403647,17.7983279 Z" id="Fill-1" fill="#0C2838"></path>
                <path d="M75.9286729,17.0010298 L75.9286729,24.727924 L72.5252271,24.727924 L72.5252271,16.9705512 C72.5252271,14.2720646 71.3907452,12.8311033 68.66178,12.8311033 C66.822339,12.8311033 65.5648138,13.4745408 64.6758541,14.5175868 L64.6758541,24.727924 L61.2419297,24.727924 L61.2419297,16.4800712 C61.2419297,14.1800643 60.2604053,12.8006246 57.5929618,12.8006246 C55.8759996,12.8006246 54.311995,13.4745408 53.3919922,14.7015874 L53.3919922,24.727924 L49.9891109,24.727924 L49.9891109,10.1941383 L53.0239911,10.1941383 L53.2390347,12.3406233 C54.1279944,11.1750983 55.9064782,9.91813753 58.6969651,9.91813753 C60.9964075,9.91813753 62.8668916,10.9606192 63.663851,12.6160597 C64.7678543,11.2670986 66.6992957,9.91813753 69.2753033,9.91813753 C73.6907521,9.91813753 75.9286729,12.3095802 75.9286729,17.0010298" id="Fill-3" fill="#0C2838"></path>
                <path d="M90.3439305,20.8645898 L90.3439305,18.8101051 C89.0248837,18.3196251 87.3694431,17.951624 85.6829596,17.951624 C83.0770377,17.951624 81.6050333,18.4116254 81.6050333,20.2510665 C81.6050333,22.0295503 83.3835172,22.5200303 85.467916,22.5200303 C87.4309648,22.5200303 89.3008845,21.9685931 90.3439305,20.8645898 L90.3439305,20.8645898 Z M90.7424103,24.7280369 C90.5894527,24.2375569 90.496888,23.5625119 90.4353664,22.949553 C89.4854495,23.930513 87.7684873,25.0345163 84.7629569,25.0345163 C81.6050333,25.0345163 78.4471098,23.7465125 78.4471098,20.435067 C78.4471098,16.7860991 81.2985539,15.6521816 84.9164788,15.6521816 C87.0324851,15.6521816 88.9334478,16.1731402 90.3439305,16.7860991 L90.3744092,15.8971394 C90.4048878,13.2912175 88.5039251,12.5247367 85.8364815,12.5247367 C83.5364747,12.5247367 81.7275122,13.1681742 80.7155092,14.0571339 L79.642549,11.451212 C81.2065536,10.6232096 83.1995166,9.91825041 86.2349612,9.91825041 C90.3439305,9.91825041 93.4403324,11.6967342 93.3483321,16.2036188 C93.3178535,17.6451446 93.3178535,19.3925854 93.3178535,20.8335467 C93.3178535,23.1025106 93.4098538,24.084035 93.5938543,24.7280369 L90.7424103,24.7280369 Z" id="Fill-5" fill="#0C2838"></path>
                <path d="M106.169163,10.4699698 L105.586683,13.6284578 C105.126117,13.3214139 104.451636,13.1069348 103.59372,13.1069348 C101.906672,13.1069348 100.619232,14.3638956 100.067231,16.0808577 L100.067231,24.7277547 L96.7862638,24.7277547 L96.7862638,10.193969 L99.8527515,10.193969 L100.036752,13.5054145 C100.650275,11.2979723 102.029715,10.0714901 104.114678,10.0714901 C104.850681,10.0714901 105.709162,10.2244476 106.169163,10.4699698" id="Fill-7" fill="#0C2838"></path>
                <path d="M107.073701,23.2562018 L108.17714,20.4961936 C109.495622,21.7232402 111.734107,22.458678 114.03355,22.458678 C116.701558,22.458678 118.326519,21.8457191 118.326519,20.2512358 C118.326519,18.5957953 116.487078,18.7182742 113.420591,18.4117947 C109.833144,17.982272 107.68666,17.3687487 107.68666,14.7013052 C107.68666,12.0643402 109.771623,9.91841974 114.279072,9.91841974 C116.732036,9.91841974 118.878521,10.3473781 120.56444,11.1449019 L119.58348,13.6893021 C118.296041,12.8308211 116.395078,12.46282 114.30955,12.46282 C111.918108,12.46282 110.568582,13.1378649 110.568582,14.486826 C110.568582,15.7748298 112.408588,15.7437868 115.352032,16.0813093 C118.02004,16.3877887 121.147485,16.7862684 121.147485,20.0977139 C121.147485,23.4402024 118.51052,25.0036426 114.156593,25.0036426 C111.335627,25.0036426 108.821141,24.3291621 107.073701,23.2562018" id="Fill-9" fill="#0C2838"></path>
                <path d="M139.206969,10.1941383 C135.527523,18.5035128 132.001034,26.0159278 128.965589,30.9828138 L125.746144,29.9713752 C127.126148,28.0393694 128.230151,25.9848848 128.873589,24.6359237 L122.189741,10.1941383 L125.807666,10.1941383 L130.682551,22.0604805 L135.650002,10.1941383 L139.206969,10.1941383 Z" id="Fill-11" fill="#0C2838"></path>
                <g id="Group-15" transform="translate(138.847039, 9.489010)">
                    <mask id="mask-2" fill="white">
                        <use xlink:href="#path-1"></use>
                    </mask>
                    <g id="Clip-14"></g>
                    <path d="M0.232032593,13.7671919 L1.33603588,11.0071837 C2.65451834,12.2342303 4.89300354,12.9696681 7.19244597,12.9696681 C9.86045392,12.9696681 11.4848514,12.3567092 11.4848514,10.7622259 C11.4848514,9.10678542 9.64541033,9.22926431 6.57892267,8.92278487 C2.99204082,8.49326212 0.845555894,7.87973882 0.845555894,5.21229529 C0.845555894,2.57533037 2.93051916,0.429409868 7.43796817,0.429409868 C9.89036812,0.429409868 12.036853,0.858368202 13.7233366,1.65589205 L12.7423766,4.20029227 C11.4543728,3.34181118 9.55341006,2.97381009 7.46844679,2.97381009 C5.07700408,2.97381009 3.72747859,3.64885504 3.72747859,4.99781612 C3.72747859,6.28581996 5.56748407,6.25477692 8.51092843,6.5922994 C11.1789364,6.89877884 14.3063813,7.29725855 14.3063813,10.608704 C14.3063813,13.9511925 11.6694164,15.5146327 7.31548928,15.5146327 C4.49452382,15.5146327 1.9800378,14.8401522 0.232032593,13.7671919" id="Fill-13" fill="#0C2838" mask="url(#mask-2)"></path>
                </g>
                <polygon id="Fill-16" fill="#D9E506" points="11.0414439 14.8651559 11.0414439 19.8201891 22.0826057 14.8651559 22.0826057 9.91012278"></polygon>
                <g id="Group-20" transform="translate(5.079770, 19.648549)">
                    <mask id="mask-4" fill="white">
                        <use xlink:href="#path-3"></use>
                    </mask>
                    <g id="Clip-19"></g>
                    <polygon id="Fill-18" fill="#6984D1" mask="url(#mask-4)" points="17.0031181 5.12672939 0.517007675 12.4173278 0.517007675 7.46229463 17.0031181 0.171696217"></polygon>
                </g>
                <polygon id="Fill-21" fill="#40877E" points="11.0414439 14.8651559 11.0414439 19.8201891 0.00028220943 14.8651559 0.00028220943 9.91012278"></polygon>
                <polygon id="Fill-23" fill="#32D17E" points="22.0828879 4.95503317 0 14.8650995 0 9.91006634 22.0828879 0"></polygon>
            </g>
        </g>
    </g>
</svg>